<?xml version="1.0" encoding="utf-8"?>
<!-- Generator: Adobe Illustrator 24.0.1, SVG Export Plug-In . SVG Version: 6.00 Build 0)  -->
<svg version="1.1" id="Layer_1" xmlns="http://www.w3.org/2000/svg" xmlns:xlink="http://www.w3.org/1999/xlink" x="0px" y="0px"
	 viewBox="0 0 1366 768" style="enable-background:new 0 0 1366 768;" xml:space="preserve">
<style type="text/css">
	.st0{fill:#454547;}
	.st1{fill:#B48F5A;}
</style>
<g>
	<path class="st0" d="M196.4,486.4V325.8H163v160.6c0,37.3-7.4,47.1-22.5,46.4v3.2H219v-3.2C203.8,533.5,196.4,523.7,196.4,486.4"/>
	<path class="st1" d="M1316.2,126.1l-102.6-26.3c-2.9-0.7-3.3-4.6-0.7-6l10.1-5.4c0.7-0.4,1.6-0.5,2.4-0.3l100.2,28.8
		c3,0.9,3.2,5.1,0.3,6.2l-7.8,2.9C1317.5,126.3,1316.8,126.3,1316.2,126.1"/>
	<path class="st1" d="M495.8,262.9c35,7.9,68.7,13.6,101,17.1c12.5,1.3,25.1,3.5,37.7,4.3c8.5,0.5,16.5,2,25.1,2.6
		c70.1,5,141.4,6.7,212.5,6.2c115.2-0.9,230.3-13.5,338.1-54.4c6-2.3,8.6-0.2,7.6,6.1c-2.8,18.4-0.3,37.3,21.4,40.1
		c10.4,1.3,19.9,0,28.5-3.9c4.1-1.9,5.8-6.9,3.6-10.9l-8.1-14.8c-1.5-2.6-1.8-5.7-0.9-8.6l7.4-25.1c0.8-2.9,4.8-3.3,6.2-0.6
		c13,24.3,14.4,49.3,4.2,75.1c-7.6,19-23.3,30.1-44.8,26c-23.9-4.6-33.9-24.9-33.4-47.2c0-2-0.9-2.6-2.7-1.8
		c-63.8,26.1-134.3,42.9-211.3,50.2c-128.4,12.3-249.2,7.1-377.4-3.4c-11-0.9-22.1-2.2-33-3.8c-9.3-1.4-19.7-4.6-31.1-9.5
		c-32.3-13.9-60.9-27.7-85.7-41.3c-4-2.2-8.5-3.5-13.2-3.8c-37.8-2.3-73.1-9.2-106-26.4c-1.3-0.7-1.9-0.3-1.9,1.2
		c0.7,19.5-2,45.4-14.7,60.4c-14,16.6-34.4,31.6-52.9,43.6c-21.9,14.2-47.4,28.7-76.4,43.5c-5.7,2.9-11.6,5-17.7,6.2
		c-20.7,4.1-40.8,8.9-60.2,14.3C94.3,410.9,71,416,47.9,419.5c-11.8,1.8-12.4,0-1.7-5.3c5.9-3,12.1-6.5,18.1-9
		c73.2-30.5,139.7-58,206.9-98.4c15.1-9.1,29.2-19.1,42.2-30.1c9.9-8.4,13.2-18.8,9.9-31.3c-4.8-17.6-11-33.4-19.3-49.2
		c-5.7-10.9-0.7-28.6,3.2-38.8c1.3-3.3,5.9-3.4,7.4-0.2c10.4,23.7,28.7,43,52.4,51.5c8.6,3.1,18.7,5.7,30.5,7.7
		c102.4,17.5,206.7,8.1,308.9-20.2c30.6-8.5,60.4-20.2,89.3-35.2c1.9-1,4.1,0.5,3.9,2.7c-2.6,21.4-3.1,46.8,27.7,43.8
		c28.6-2.7,44.5-21.5,62.9-40.9c2-2.1,4.3-3.7,6.9-4.9c1.7-0.8,3.6,0.3,3.9,2.1c0.6,4,1.1,7.9,1.4,11.8c1,14.2,15.3,24.4,28.3,30.3
		c1.4,0.6,2.4,0.3,3.2-1c10-16.9,19.9-32.8,29.7-47.8c25.6-39.1,67.7-80.7,116.2-47.3c13,8.9,34.8,31.5,31.1,49.2
		c-3.7,17.9-9.2,31.6-16.4,41c-8.5,11.2-22.6,19.8-34.9,26.7c-36.5,20.8-88.1,34.6-126.9,19.3c-1.4-0.5-2.4-0.2-3,1.2l-6.6,15.1
		c-0.7,1.6-2,2.4-3.8,2.3l-1.1-0.1c-1,0-1.5-0.5-1.4-1.5c0.3-7.2,1.7-13.8,4.1-19.9c0.5-1.2,0.1-2.1-1.1-2.6
		c-17-7.1-27.6-18.8-31.7-35c-0.1-0.5-0.8-0.6-1.1-0.2c-16.3,23.4-48.7,49.1-79.2,37c-16.2-6.4-24.9-24.5-25.8-41.3
		c-0.1-1.2-1.4-2-2.5-1.5c-55.7,27.3-114.9,45.6-177.6,55c-34.2,5.1-69.5,7.8-105.8,8c-0.1,0-0.2,0.1-0.2,0.2
		C495.6,262.8,495.7,262.8,495.8,262.9 M1039.5,132.7c-40.2-4.6-75.2,44.8-94.1,77.6c-0.7,1.3-0.4,2.1,1,2.6
		c20.9,7,46.9,4.9,67.7-0.1c29.4-7,55.9-19.1,79.5-36.4c2.8-2,3.3-6,1.2-8.7C1081.7,150.7,1061.8,135.3,1039.5,132.7"/>
	<path class="st1" d="M426.5,151.6c-1.4,1.4-1.2,3.7,0.4,4.7l12,8.2c1.7,1.2,2.6,3.4,2,5.4l-2.1,8.4c-0.5,2-1.7,2.7-3.7,1.8
		c-12.1-5.2-27.4-14-16.4-29.7c7.3-10.5,17-18.2,30.6-19.8c16.2-2,31.8-5,47.7-6.5c62.1-5.6,130-11.5,203.7-17.7
		c3-0.3,3.7,0.8,1.8,3.3l-4.4,5.9c-2,2.7-5.1,4.5-8.5,4.8c-75.3,7.5-149.8,15-223.5,22.3c-10.4,1.1-21,2.7-31.7,4.7
		C431.2,148.3,428.6,149.6,426.5,151.6"/>
	<path class="st1" d="M1154.6,164c12.1,11.9,17.4,16.7,14.8,34.8c-1.1,7.7-4.6,13.7-9.7,17.4c-5.2,3.8-14.9,7.5-20.9,3.7
		c-17.1-10.8,10.8-71.3,12.1-73.7c0.9-1.6,2.4-2.8,2.4-2.8c0.9-0.6,1.9-1,3.1-1.3c1.9-0.4,3.4,1.5,2.8,3.3l-5.4,15.3
		C1153.4,162,1153.7,163.1,1154.6,164 M1140.2,199.3c-0.6,2.9,2,5.5,4.9,4.8c5.1-2,10.1-4,15.2-6c2.6-1.4,2.9-5.1,0.5-6.9l-11.3-8.6
		c-2.4-1.9-6-0.5-6.6,2.5L1140.2,199.3z"/>
	<path class="st1" d="M1265.3,183.1l-7.3,14.2c-1.5,2.8-5.1,3.7-7.7,1.9l-24.5-17.3c-1.3-0.9-1.6-2.1-0.9-3.5l11-22.7
		c1.7-3.5,4.1-4.1,7.3-1.9l22.6,15.9c0.9,0.6,1.5,0.4,2-0.5l7.7-16.2c1.1-2.3,3.9-3.1,6-1.6l25,17.1c2.4,1.6,3.1,4.7,1.8,7.3
		l-12.2,22.7c-0.7,1.3-2.3,1.7-3.5,0.8l-24-17C1267,181.5,1266,181.7,1265.3,183.1"/>
	<path class="st1" d="M731.5,267.6l-6.8,13.3c-1.6,3.1-5.5,4.1-8.4,2.1l-24.6-16.7c-1.1-0.8-1.5-2.3-0.9-3.5l9.8-20.4
		c1.7-3.7,6.2-5.1,9.8-3.1c6.8,3.8,13.6,8.6,20.3,14.3c1.2,1,3,0.6,3.7-0.7l7.6-15.7c1-2,3.5-2.7,5.4-1.6c9.2,5.5,17.9,11.6,26,18.1
		c1.4,1.2,1.9,3.1,1.3,4.8c-3.5,9-7.9,17.2-13.2,24.7c-0.5,0.8-1.6,1-2.4,0.4l-24.3-16.8C733.2,265.9,732.2,266.2,731.5,267.6"/>
	<path class="st1" d="M818.7,348.5l25.7,17.7c1.6,1.2,2.2,3.3,1.3,5.1l-11.5,22.5c-1.1,2.2-3.9,2.9-5.9,1.5l-25.5-18.1
		c-1.6-1.2-2.1-3.3-1.3-5.1l11.2-22.1C814,347.8,816.7,347.2,818.7,348.5"/>
	<path class="st0" d="M266.4,295.5H92.7l-14.4,53.1h3.2c10.5-27.1,44.3-46.8,72.4-46.8h9.1v29.4l33.4,0.6v-30h8.8
		c28.5,0,61.9,19.7,72.8,46.8h3.2L266.4,295.5z"/>
	<path class="st0" d="M575.7,394.8c-23.6,0-43.3,14.9-56.9,33.5v-43.1v-6.1l-0.6-43.4c-8.2,11.3-25.8,13.9-42.7,13.9v2.5
		c11.8-0.5,17.4,6.9,18,33h0c0,4.2,0,9,0,9.6V508c0,29.8-5.6,37.7-18,37.2v2.5h69c50.4,0,77.1-49,77.1-92.9
		C621.5,422.7,605.8,394.8,575.7,394.8 M539.9,542.6c-19.4,0-21.1-19.7-21.1-34.6v-70.9c11.3-16,27.9-34.1,49.5-30.4
		c22.5,3.7,27.6,31.8,27.6,50.7C595.4,489.4,579.3,542.6,539.9,542.6"/>
	<path class="st0" d="M428,547.7c-18.3,0-26.5-12.7-32.1-27.9c-3.9-11-6.8-23.9-9-37.2c-2.5,33.5-16.9,65-56.9,65
		c-24.5,0-43.3-13.8-41.9-40c2.5-41.9,56-49.8,69.8-77.7c12.1-23.6-6.8-36-27.9-26.5c-13.2,5.9-26.5,19.1-32.7,27.6l-9-23.6
		c16.6-7.9,37.7-12.7,59.4-12.7c41.7,0,51.8,17.2,59.4,54.3c6.2,28.7,9,61.4,21.1,79.4c3.4,5.3,11.3,11.5,18,5.9l2,1.7
		C444.1,544.3,436.2,547.7,428,547.7 M367.8,414.3c2.3,9.3-0.3,20.5-4.8,28.4c-12.1,21.7-42.5,31.5-48.4,58.5
		c-2.8,13.8,1.7,28.4,17.7,32.4c20.8,5.1,38.3-11.8,44.5-29.6c6.5-18.3,7.3-44.2,2.8-62.8C377.1,431.1,373.4,421.6,367.8,414.3"/>
	<path class="st0" d="M733.6,542.6c15.8-0.3,36.6-5.1,42.8-22.2c3.9-11-1.1-22.5-13.2-29.6c-16.9-9.3-44.5-11.3-66.7-19.1
		c-15.8-5.6-31.8-14.4-31.8-35.2c0-19.1,20.3-32.1,36-37.2c10.1-3.1,21.1-4.5,32.4-4.5c20.3,0,40.5,4.5,56,12.7l-9,23.6
		c-6.2-11.3-19.4-28.7-43.6-31c-11-1.1-26.7,0.3-36.6,6.5c-15.2,9-22.5,27.6-1.4,38.3c25.1,12.7,64.7,10.1,84.4,30.1
		c12.9,13.2,13.5,38,2.3,52.6c-11.3,14.9-33.2,20-52.4,20c-25.9,0-49.5-7.6-68.1-23.4V486h2.5C675,516.7,702.6,542.9,733.6,542.6"/>
	<path class="st0" d="M972.3,457.3h-116c0.3,6.8,0.8,13.5,2.5,20.5c7.6,32.1,33.5,62.2,69.5,58.3c22.5-2.5,43.9-18.9,53.5-46.4h2.5
		c-8.4,33.2-38.3,58-74.3,58c-41.9,0-76.3-34.1-76.3-76.3c0-42.2,34.3-76.6,76.3-76.6C949.3,394.8,972.6,427.2,972.3,457.3
		 M886.5,404.1c-17.7,6.2-28.7,25.3-29.8,48.1H947C943.1,414,911.8,395.1,886.5,404.1"/>
	<path class="st0" d="M1152.7,457.3h-116c0.3,6.8,0.8,13.5,2.5,20.5c7.6,32.1,33.5,62.2,69.5,58.3c22.5-2.5,43.9-18.9,53.5-46.4h2.5
		c-8.4,33.2-38.3,58-74.3,58c-41.9,0-76.3-34.1-76.3-76.3c0-42.2,34.3-76.6,76.3-76.6C1129.6,394.8,1152.9,427.2,1152.7,457.3
		 M1066.8,404.1c-17.7,6.2-28.7,25.3-29.8,48.1h90.3C1123.4,414,1092.2,395.1,1066.8,404.1"/>
	<path class="st0" d="M1264.1,545.1v2.5h-61.4v-2.5c12.1,0.6,18-7.3,18-37.1v-54.6c0-29.8-5.9-38-18-37.4v-2.5
		c16.6,0,35.7-7.6,43.3-18.6v33.5c11.8-16.9,29-33.5,50.4-33.5c11.5,0,22.8,5.3,31.5,12.7l-9,23.6c-11.5-17.5-30.1-37.2-50.9-19.7
		c-9,7.3-16.9,18-22,26.2V508C1246.1,537.8,1252,545.7,1264.1,545.1"/>
	<path class="st1" d="M144.5,581c0.9,1.1,1.6,1.9,2,2.4c0.3,0.2,0.5,0.3,0.6,0.3c0.2,0,0.3-0.1,0.3-0.3c0-1.3-1.6-4.8-4.7-10.7
		c-0.5-1.2-0.9-1.8-1.2-1.8c-0.1,0-0.2,0.1-0.3,0.3c-1.1,3.3-1.4,5.3-1,6c0.7,1.4,1.1,2.3,1.2,2.7c0.6,5.3,1.1,9.2,1.5,11.8
		c0.9,5.3,1.8,10.6,2.7,15.9c1.7,9.7,2.5,15.5,2.5,17.5c0,0.4,0,0.7-0.1,0.8c-4.2,4.5-9.5,8.5-15.9,12.2c-6,3.5-10.4,5.2-13.1,5.2
		c-5.3,0-9.2-1.7-11.8-5.1c-1.8-2.3-2.7-4.9-2.7-7.7c0-3.7,0.6-6.9,1.7-9.6c0.3-0.8,0.5-1.5,0.5-2c0-0.4-0.1-0.7-0.3-0.7
		c-0.4,0-1,0.7-1.7,2.2c-1.5,3.4-2.3,7.3-2.3,11.7c0,4.6,1.2,8.5,3.5,11.8c2.7,3.7,6.3,5.5,11,5.5c4.5,0,10-2,16.6-6.1
		c6.1-3.8,10.8-7.8,14.2-12.1c2-2.5,2.9-6.4,2.9-11.8c-0.2-3.8-1.3-11.1-3.2-21.8C145.5,587,144.5,581.5,144.5,581"/>
	<path class="st1" d="M184.1,607.3c-1.7,0-3.2,0.9-4.7,2.7c-1.6,1.9-2.3,4.2-2.3,6.9c0.1,3.2,1.7,4.7,5,4.7c0.3,0,1.2,0,2.7-0.1
		c1.8-0.1,3.4,0.2,4.9,1c1.2,0.6,2,1.3,2.1,2c-0.8,1.7-4.1,4.6-9.7,8.7c-6.8,5-12.4,7.5-16.7,7.5c-7.2,0-10.7-4-10.4-12
		c0.1-1.5,0.3-3.1,0.7-4.7c0.2-0.9,0.6-2,1.1-3.4c0.5-1.2,0.7-2.2,0.7-2.7c0-0.3-0.1-0.5-0.2-0.5c-0.4,0-1,0.9-1.7,2.8
		c-1.5,3.8-2.3,7.1-2.4,10c0,0.5,0,1,0,1.6c0,3.9,0.7,7.3,2.2,10c1.9,3.4,4.6,5.1,8.3,5.1c5,0,10.9-2.5,17.5-7.6
		c5-3.8,8.6-7.1,10.5-10c1.3-2.6,1.9-5.5,1.8-8.8c-0.2-4.1-1.6-7.5-4.1-10.2C187.4,608.3,185.6,607.3,184.1,607.3 M185.6,615.7
		c-0.9,0-1.8,0-2.7,0c-1.2-0.1-1.9-0.3-2.3-0.9c0.1-1.3,0.8-2,2.3-2c1.2,0,2.7,1,4.5,3C186.9,615.8,186.2,615.8,185.6,615.7"/>
	<path class="st1" d="M231,624.3c0.2,0.3,0.5,1.2,0.9,2.5c0.3,1.1,0.5,1.7,0.7,1.7c0.2,0,0.4-1.2,0.6-3.6c0.1-2.2-0.5-4.7-2-7.6
		c-1.3-2.6-2.9-4.8-4.8-6.6c-17.1-16.3-26-25.4-26.6-27.3c1.2,0.2,2.1,0.3,2.6,0.3c0.4,0.1,0.7,0.1,0.9,0.1c0.3,0,0.4-0.1,0.4-0.2
		c0-0.2-0.3-0.5-0.7-0.9c0.3,0.1,0.7,0,1.4-0.6c1.8-1.5,4-2.9,6.7-4.3c2.5-1.3,4-2.2,4.7-2.8c0.8-0.8,1.2-1.8,1.2-3
		c0-0.2-0.1-0.3-0.3-0.3c-3.5,2.1-5.7,3.2-6.5,3.2c-1.3,0-2.8-0.8-4.5-2.5c1.2-1.7,2.2-2.5,3.2-2.5c0.5,0,0.9,0.2,1.1,0.7
		c0.4,0.7,0.7,1.1,1,1.3c0.6,0.1,1.1-0.9,1.5-3c0-1.6-0.6-2.3-1.8-2.3c-1.3,0-2.9,1-4.7,3c-1.8,2-2.7,3.7-2.7,4.9
		c0,0.7,0.4,1.4,1.2,2.1c0.8,0.7,1.6,1.1,2.3,1.1c-1.2,0.6-2,1.2-2.6,1.8c-0.1,0.1-0.4,0.6-1.1,1.6c-0.3,0.5-0.5,0.8-0.5,1.1
		c0,0.2,0,0.3,0.1,0.4c-0.6-0.5-1.4-1.1-2.4-1.8c-3-2.1-4.5-3.2-4.7-3.3c-1.1-0.9-1.9-1.4-2.3-1.4c-0.1,0-0.1,0-0.1,0.1s0,0.1,0,0.2
		c0.1,0.6,0.2,1.3,0.2,1.9c0,0.7-0.1,1.4-0.2,2.2c-0.1,0.8-0.2,1.2-0.2,1.2c0,0.1,0,0.2,0,0.2c0.8,0.7,1.5,1.1,1.9,1.3
		c4.2,6.3,7.3,10.5,9.3,12.5c10.6,10.3,18,17.4,22.3,21.4C228.5,620,230.1,622.4,231,624.3"/>
	<path class="st1" d="M235.9,600.6c-1.9-10.4-3-17.3-3.6-20.7c0.9,0.8,1.5,1.4,2,1.9c0.3,0.3,0.6,0.5,0.8,0.5c0.5,0,0.7-0.5,0.3-1.3
		c-3-6.5-4.9-10.3-5.6-11.3c-0.3-0.8-0.6-1.1-0.9-1.1c-0.2,0-0.3,0.2-0.4,0.5c-0.7,2.9-1.1,4.6-1.3,5.2c-0.1,0.4,0.3,1,1,1.8
		c0.1,1.4,1.5,9.3,4,23.6c2.2,12.7,3.3,21.1,3.3,25.3c0,0.7,0,1.2-0.1,1.7c-0.1,0.7-0.8,1.9-2.1,3.5c-1.3,1.4-2.6,2.9-3.8,4.3
		c-1.7,1.9-4.2,4.1-7.7,6.7c-0.6,0.5-3.1,2.1-7.3,5c-1.2,0.8-1.8,1.4-1.8,1.7c0,0.1,0.1,0.2,0.3,0.2c0.4,0,1.2-0.2,2.3-0.7
		c6.1-2.4,9.7-3.9,10.7-4.3c2.5-1.2,4.6-2.9,6.3-5.3c0.9-1.3,1.7-2.7,2.4-4.4c2-4.8,3-9.4,3-13.6c0-1,0-2-0.1-3
		C237.7,612,237,606.6,235.9,600.6"/>
	<path class="st1" d="M257.8,597c-1.2-9.9-1.8-15.2-1.8-16c0.8,0.8,1.6,1.5,2.3,2.1c0.3,0.2,0.5,0.3,0.6,0.3c0.2,0,0.3-0.1,0.3-0.3
		c0-0.7-0.7-2.6-2.1-5.5c-0.9-1.9-1.8-3.8-2.7-5.7c-0.5-1.3-0.9-1.9-1.2-1.9c-0.1,0-0.2,0.1-0.3,0.3c-1.1,3.4-1.6,5.2-1.4,5.5
		c0.7,1.4,1.1,2.2,1.2,2.6c0.5,5.7,0.9,10.1,1.2,13.2c1.9,16.6,3.3,29.1,4.3,37.4c0.3,2.6,0.2,5,0,7.3c-0.2,1.9-0.2,2.8,0.1,2.8
		c0.2,0,0.5-0.4,1-1.2c1.1-2.1,1.7-5.6,1.7-10.4c0-1.4-0.1-2.8-0.2-4.2C260.4,617.4,259.4,608.7,257.8,597"/>
	<path class="st1" d="M330.1,677.3c-1.9-1.1-3.3-2.1-4.2-3c-1.4,3.1-2.1,4.9-2.1,5.4c0,0.5,1,1.3,3,2.5c1.9,1.1,2.9,1.7,3.2,1.7
		c0.5,0,1-0.6,1.5-1.8c0.3-1,0.5-1.9,0.5-2.6S331.4,678.1,330.1,677.3"/>
	<path class="st1" d="M335,673.6c-0.3,0-0.7,0.8-1.3,2.3c-0.6,1.4-0.9,2.2-0.9,2.4c0,0.5,1.9,1.8,5.8,4c0.5-0.6,1.1-1.6,1.5-3
		c0.4-1.1,0.6-1.9,0.6-2.4C340.7,676.4,338.8,675.3,335,673.6"/>
	<path class="st1" d="M536.4,637.2L536.4,637.2c1.8,0,3.8-0.7,6.1-2c2-1.1,3.5-2.3,4.5-3.4c2.4-2.8,3.4-5.8,3-8.8
		c-0.3-2.1-1.6-4.4-3.9-7.1c-2.6-2.9-4-4.8-4.3-5.6c0.6,0.1,1.3,0.2,2.2,0.2c0.5,0,0.7-0.1,0.7-0.4c0-0.3-0.4-0.8-1.1-1.4
		c-2.1-1.6-3.9-2.9-5.3-3.9c-0.4-0.4-0.7-0.2-0.9,0.7c-0.2,1.9-0.4,3.3-0.5,4.4c-0.1,0.3,0.2,0.5,0.8,0.5c1,3,2.8,6.1,5.5,9.1
		c2.8,3.2,4.4,5.3,4.8,6.3c0.2,0.6-0.9,1.5-3.5,3c-2.8,1.5-5.6,2.3-8.2,2.3H529h-7.4h-7.4h0h-7.4h-7.4h-7.4h-7.4H477h-7.4h0h-7.4
		h-7.4h-7.4h-7.4h-7.4h-7.4h-7.4h0H410h-7.4h-7.4h-7.4h-7.4h-7.4h0h-7.4H358h-7.4c-4.3,0.6-8.2,1.4-11.8,2.4c-6,1.7-10,3.2-11.8,4.4
		c-0.3,0.3-0.7,1.3-1.2,2.9c-0.4,1.4-0.6,2.2-0.6,2.4c0.1,1.1,0.9,2,2.6,2.6c0.6,0.2,3.7,1.1,9.4,2.6c3.7,1,5.5,1.9,5.5,2.8
		c0,0.4-1.6,1.5-4.7,3.4c-3.5,2.1-7.2,3.9-11,5.6c-6.9,2.9-12.4,4.3-16.6,4.3c-4.5,0-8.2-1.3-11-3.9c-3-2.7-4.5-6.3-4.5-10.8
		c0-2.3,0.5-5.3,1.5-9c0.6-2,1.2-4,1.8-6c0.3-1.2,0.3-1.8,0.1-1.8c-0.1,0-0.4,0.4-0.8,1.1c-3.1,5.7-4.7,11.8-4.7,18.5
		c0,7.2,2.5,12.3,7.6,15.3c3,1.8,6.1,2.7,9.3,2.7c4.9,0,11.7-2.2,20.6-6.6c8.5-4.3,13.2-7.3,14-9.3c1.1-2.5,1.6-4.5,1.6-6
		c0-1.6-0.2-2.7-0.6-3.4c-0.6-1-1.8-1.7-3.7-2.3c-3.7-1-6.2-1.7-7.5-2c3.5-1.5,6.2-2.5,8.1-2.8c4.2-0.7,7-1.1,8.4-1.2h7.4h7.4h7.4h0
		h7.4h7.4h7.4h7.4h7.4h7.4h0h7.4h7.4h7.4h7.4h7.4h7.4h7.4h0h7.4h7.4h7.4h7.4h7.4h7.4h0h7.4h7.4H536.4z"/>
	<path class="st1" d="M530,584.5c1.7,0.9,3.4,1.7,5.1,2.6c1.2-1.5,1.8-3.2,1.8-5.1c0-0.6-0.7-1.2-2.3-2c-2.1-1-3.5-1.8-4.3-2.4
		c-1.1,3.7-1.6,5.5-1.6,5.4C528.7,583.6,529.1,584,530,584.5"/>
	<path class="st1" d="M640.1,615.9c-2.6-2.9-4-4.8-4.3-5.6c0.6,0.1,1.3,0.2,2.2,0.2c0.5,0,0.7-0.1,0.7-0.4c0-0.3-0.4-0.8-1.1-1.4
		c-2.1-1.6-3.9-2.9-5.3-3.9c-0.4-0.4-0.7-0.2-0.9,0.7c-0.2,1.9-0.4,3.3-0.5,4.4c-0.1,0.3,0.2,0.5,0.8,0.5c1,3,2.8,6.1,5.5,9.1
		c2.8,3.2,4.4,5.3,4.8,6.3c0.2,0.6-0.9,1.5-3.5,3c-2.8,1.5-5.6,2.3-8.2,2.3h-7.4h-7.4h0h-7.4h-7.4h-7.4h-7.4c-0.8,0-1.6,0-2.6,0
		c-0.7-2.3-2-4.4-4-6.4c-1.9-1.9-3.4-2.9-4.5-2.9c-1.6,0-3.2,1.1-4.7,3.2c-1.5,2.2-2.3,4.5-2.3,6.9c0,0.9,0.4,1.8,1.1,2.7
		c0.6,0.8,1.3,1.4,2.1,1.7c1.4,0.6,4.8,0.9,10.3,0.9c0.3,0.5,0.5,1.1,0.6,1.8c-0.1,1.1-3.5,3.9-10.2,8.6c-6.9,4.8-13.6,8.8-20,12
		c-5.2,2.7-10.3,5.1-15.2,7.2c-1.6,0.7-2.4,1.2-2.4,1.6c0,0.2,0.2,0.3,0.6,0.3c0.6,0,1.5-0.2,2.5-0.6c5-1.9,10.7-3.2,17-4.2
		c3.1-1.2,7-3.4,11.7-6.4c5.2-3.4,9.8-6.9,13.7-10.5c1.9-2.1,3.2-4.8,3.8-7.9c0.2-1,0.3-1.7,0.4-2c0.7,0,1.4,0,2-0.1h7.4h7.4h7.4
		h7.4h0h7.4h7.4c1.8,0,3.8-0.7,6.1-2c2-1.1,3.5-2.3,4.5-3.4c2.4-2.8,3.4-5.8,3-8.8C643.7,621,642.4,618.6,640.1,615.9 M571.5,630.3
		c0-0.7,0.2-1.2,0.6-1.5c0.4-0.3,1-0.5,1.7-0.5c1,0.1,1.8,0.5,2.4,1.4c0.4,0.6,0.7,1,1,1.3C573.9,631,572,630.7,571.5,630.3"/>
	<path class="st1" d="M623.9,584.5c1.7,0.9,3.4,1.7,5.1,2.6c1.2-1.5,1.8-3.2,1.8-5.1c0-0.6-0.7-1.2-2.3-2c-2.1-1-3.5-1.8-4.3-2.4
		c-1.1,3.7-1.6,5.5-1.6,5.4C622.6,583.6,623.1,584,623.9,584.5"/>
	<path class="st1" d="M675.3,631.1v0.2c-2.2-1.4-3.8-3.2-4.7-5.4c-1.7-5.3-2.5-13.3-2.5-23.9c-0.6-25.1-2.4-37.7-5.6-37.7H662
		c-0.1,0-0.5,0.3-1.3,1c-2.1,3.8-3.1,7.2-3.1,10.2c0,0.1,0.1,0.2,0.2,0.2h0.1l0.2-0.1c1.6-3.8,2.6-5.7,3-5.7c0.4,0.3,1,1.9,1.7,4.7
		c0.8,4.8,1.4,10.5,1.7,17.3c0.8,23.4,1.7,36,2.7,37.8c0.3,1,1.2,3.5,3.7,5.5c1.7,1.3,3.5,1.8,4.4,2h7.3h7.4v-6.1h-7.4H675.3z"/>
	<polygon class="st1" points="705,631.1 697.6,631.1 690.2,631.1 690.2,637.2 697.6,637.2 705,637.2 712.5,637.2 712.5,631.1 	"/>
	<polygon class="st1" points="719.9,631.1 712.5,631.1 712.5,637.2 719.9,637.2 727.3,637.2 734.8,637.2 734.8,631.1 727.3,631.1 	
		"/>
	<path class="st1" d="M737.1,592.3c1.9,1.1,2.9,1.7,3.2,1.7c0.5,0,1-0.6,1.5-1.8c0.3-1,0.5-1.9,0.5-2.6c0-0.7-0.6-1.5-1.9-2.2
		c-1.9-1.1-3.3-2.1-4.2-2.9c-1.4,3.3-2.1,5.1-2.1,5.3C734.1,590.3,735.1,591.1,737.1,592.3"/>
	<path class="st1" d="M745.5,590.4c1.1,0.6,2.3,1.3,3.4,1.9c0.6-0.6,1-1.6,1.5-3c0.4-1.2,0.6-2,0.6-2.4c0-0.6-1.9-1.7-5.7-3.3
		c-0.3,0-0.7,0.8-1.3,2.3c-0.6,1.5-0.9,2.3-0.9,2.4C743.2,588.8,743.9,589.5,745.5,590.4"/>
	<path class="st1" d="M771.1,580.8c0.2,0.2,0.4,0.3,0.6,0.3c0.2,0,0.3-0.1,0.3-0.4c0-1.7-1.5-5.3-4.5-11c-0.5-1.3-0.9-2-1.2-2
		c-0.1,0-0.2,0.1-0.3,0.3c-0.9,2.9-1.4,4.7-1.4,5.5c0,0.4,0.1,0.7,0.3,1c0.5,0.6,0.7,1,0.8,1.2c0.3,4.9,0.6,9.2,1.1,13.1
		c2.9,22.5,4.4,35.2,4.4,37.8c0,0.4,0,0.6-0.1,0.7c-0.6,1.4-1.4,2.3-2.3,2.8c-1.2,0.7-2.9,1-5.3,1c-2,0-3.5-0.2-4.4-0.6
		c-1.5-0.6-2.9-1.6-4.1-3c1.5-1.2,2.6-2.3,3.3-3.3c0.8-1.1,1.2-3,1.3-5.8c0-1.9-0.6-4-1.9-6.3c-1.3-2.3-2.5-3.5-3.6-3.5
		c-3.5,0-5.3,3.1-5.3,9.4c0,2.5,0.5,5.1,1.4,7.8c-2.7,1.5-5.7,2.8-8.9,3.8c-2.9,1-5,1.4-6.3,1.4v6.1c0.9,0,3-0.7,6.5-2.1
		c4.1-1.7,7.6-3.5,10.6-5.4c1.2,2.2,2.6,4,4.4,5.4c1.8,1.4,4.1,2.1,7.1,2.1c3,0,5.6-1.5,7.8-4.6c1.8-2.5,2.7-6.6,2.6-12.1
		c-1.8-17.4-3.5-31.5-5-42.3C770.3,579.9,771.1,580.7,771.1,580.8 M752.6,624.4c-1.1-2.5-1.8-4.4-2.2-5.6c0.4-1.9,0.6-2.9,0.7-3.1
		c0.3-0.7,0.8-1.1,1.4-1.1c0.6,0,1.5,0.6,2.7,1.7c1.3,1.2,2.1,2.5,2.3,3.8C756.7,621.3,755,622.7,752.6,624.4"/>
	<path class="st1" d="M788.7,597c-1.2-9.9-1.8-15.2-1.8-16c0.8,0.8,1.6,1.5,2.3,2.1c0.3,0.2,0.4,0.3,0.6,0.3c0.2,0,0.3-0.1,0.3-0.3
		c0-0.7-0.7-2.6-2.1-5.5c-0.9-1.9-1.8-3.8-2.7-5.7c-0.5-1.3-0.9-1.9-1.2-1.9c-0.1,0-0.2,0.1-0.3,0.3c-1.1,3.4-1.6,5.2-1.4,5.5
		c0.7,1.4,1.1,2.2,1.2,2.6c0.6,5.7,0.9,10.1,1.2,13.2c1.9,16.6,3.3,29.1,4.3,37.4c0.3,2.6,0.2,5,0,7.3c-0.2,1.9-0.2,2.8,0.1,2.8
		c0.2,0,0.5-0.4,1-1.2c1.1-2.1,1.7-5.6,1.7-10.4c0-1.4-0.1-2.8-0.2-4.2C791.2,617.4,790.2,608.7,788.7,597"/>
	<path class="st1" d="M850.9,623.9c3.4-2.2,5.1-5,5.1-8.4c0-0.3,0-0.7-0.1-1c-0.1-1.2-0.7-1.8-1.9-1.8c-0.4,0-1,0.1-1.9,0.2
		c-0.9,0.2-1.5,0.2-2,0.2c-1.1,0-1.9-0.4-2.4-1.2c1.5-2.1,2.4-3.1,2.9-3.1c0.3,0,0.6,0.2,0.9,0.7c0.1,0.1,0.1,0.1,0.2,0.1
		c0.3,0,0.7-0.7,1-2c0.3-1.2,0.4-2.2,0.4-3.2c0-0.3,0-0.6-0.1-0.7c-0.3-0.4-0.7-0.7-1.1-0.7c-1.3,0-2.9,2-4.7,5.9
		c-1.6,3.4-2.4,5.5-2.4,6.1c0,1.7,0.7,2.8,2,3.3c0.9,0.3,2.8,0.5,5.7,0.5c-1.3,1.6-4.7,3.7-10.1,6.3c-0.7,0.3-1,0.6-1,0.7
		c0,0.1,0.2,0.1,0.4,0.1C843.6,625.9,846.6,625.2,850.9,623.9"/>
	<path class="st1" d="M865.8,580.2c0.9,1.1,1.6,1.9,2,2.4c0.3,0.2,0.5,0.3,0.6,0.3c0.1,0,0.2-0.1,0.2-0.4c0-1.2-1.5-4.8-4.7-10.7
		c-0.5-1.2-0.9-1.8-1.2-1.8c-0.1,0-0.2,0.1-0.3,0.3c-1.1,3.3-1.4,5.3-1,6c0.7,1.5,1.1,2.3,1.2,2.7c0.6,5.3,1.1,9.3,1.5,11.8
		c0.9,5.3,1.8,10.6,2.7,15.9c1.6,9.7,2.4,15.5,2.4,17.5c0,0.5,0,0.7-0.1,0.8c-4.2,4.5-9.5,8.6-15.9,12.3c-6,3.4-10.3,5.1-13.1,5.1
		c-5.3,0-9.2-1.7-11.8-5c-1.8-2.3-2.7-4.9-2.7-7.8c0-3.6,0.6-6.9,1.7-9.6c0.3-0.8,0.5-1.5,0.5-2c0-0.5-0.1-0.7-0.3-0.7
		c-0.4,0-1,0.7-1.7,2.2c-1.5,3.4-2.3,7.3-2.3,11.7c0,4.6,1.2,8.5,3.5,11.8c2.7,3.7,6.3,5.5,10.9,5.5c4.5,0,10-2,16.6-6.1
		c6.1-3.8,10.8-7.8,14.2-12.1c2-2.5,2.9-6.4,2.9-11.8c-0.2-3.8-1.3-11.1-3.2-21.8C866.8,586.2,865.8,580.7,865.8,580.2"/>
	<path class="st1" d="M923.7,622c-1.3-1-2.9-1.5-5-1.5c-4.7,0-9.7,2.3-15.1,6.9c-4.3,4.3-8.7,8.6-13.1,12.9c-4.9,4.6-9,6.9-12.3,7
		c-2.3,0-3.6-1.6-3.7-4.7c-0.2-4.3,1.2-9.6,4.4-15.9c0.4-0.8,0.6-1.3,0.6-1.7c0-0.2-0.1-0.3-0.2-0.3c-0.5,0-1,0.4-1.4,1.2
		c-3.5,6.3-5.3,12-5.3,17.2c0,2.5,0.8,4.6,2.5,6.3c1.7,1.8,3.7,2.6,6.1,2.6c2.5,0,5.7-2.1,9.8-6.1c7.5-7.5,12.4-12.2,14.5-13.9
		c4.3-3.5,8.1-5.3,11.4-5.3c3.2,0,5.4,1,6.6,3.1c0.2,0.5,0.4,0.7,0.7,0.7c0.3,0,0.7-0.7,1-2c0.3-1.2,0.4-2.1,0.4-2.8
		C925.6,624.3,925,623,923.7,622"/>
	<path class="st1" d="M955.8,631.4c-2.2-1.4-3.8-3.2-4.7-5.4c-1.7-5.3-2.5-13.3-2.5-23.9c-0.6-25.1-2.4-37.7-5.6-37.7h-0.5
		c-0.1,0-0.5,0.3-1.3,1c-2.1,3.8-3.1,7.2-3.1,10.2c0,0.1,0.1,0.2,0.2,0.2h0.1l0.2-0.1c1.6-3.8,2.6-5.7,3-5.7c0.4,0.3,1,1.9,1.7,4.7
		c0.8,4.8,1.4,10.5,1.7,17.3c0.8,23.4,1.7,36,2.7,37.8c0.6,1.8,1.8,3.6,3.7,5.5c0.9,0.8,2.4,1.6,4.4,2.4l0-0.4h7.3v-6.1h-7.4V631.4z
		"/>
	<polygon class="st1" points="970.7,631.1 963.2,631.1 963.2,637.2 970.7,637.2 978.1,637.2 985.5,637.2 985.5,631.1 978.1,631.1 	
		"/>
	<polygon class="st1" points="985.6,631.1 985.6,637.2 993,637.2 1000.4,637.2 1000.4,631.1 993,631.1 	"/>
	<polygon class="st1" points="1007.9,631.1 1000.4,631.1 1000.4,637.2 1007.9,637.2 1015.3,637.2 1022.7,637.2 1022.7,631.1 
		1015.3,631.1 	"/>
	<polygon class="st1" points="1030.2,631.1 1022.7,631.1 1022.7,637.2 1030.2,637.2 1037.6,637.2 1045,637.2 1045,631.1 
		1037.6,631.1 	"/>
	<polygon class="st1" points="1052.5,631.1 1045,631.1 1045,637.2 1052.5,637.2 1059.9,637.2 1067.3,637.2 1067.3,631.1 
		1059.9,631.1 	"/>
	<polygon class="st1" points="1074.8,631.1 1067.3,631.1 1067.3,637.2 1074.8,637.2 1082.2,637.2 1089.6,637.2 1089.6,631.1 
		1082.2,631.1 	"/>
	<polygon class="st1" points="1097.1,631.1 1089.6,631.1 1089.6,637.2 1097.1,637.2 1104.5,637.2 1111.9,637.2 1111.9,631.1 
		1104.5,631.1 	"/>
	<polygon class="st1" points="1119.4,631.1 1111.9,631.1 1111.9,637.2 1119.4,637.2 1126.8,637.2 1134.2,637.2 1134.2,631.1 
		1126.8,631.1 	"/>
	<path class="st1" d="M1169.6,598.3c1.9,1.1,2.9,1.7,3.2,1.7c0.5,0,1-0.6,1.4-1.8c0.4-1,0.6-1.9,0.6-2.6c0-0.7-0.6-1.4-1.9-2.1
		c-1.9-1.1-3.3-2.1-4.2-3c-1.4,3-2.1,4.8-2.1,5.3C1166.6,596.3,1167.6,597.1,1169.6,598.3"/>
	<path class="st1" d="M1178,596.4c1.1,0.6,2.3,1.3,3.4,1.9c0.6-0.6,1.1-1.6,1.5-2.9c0.4-1.1,0.6-1.9,0.6-2.4c0-0.6-1.9-1.8-5.7-3.4
		c-0.4,0-1.1,1.6-2.1,4.7C1175.7,594.8,1176.5,595.5,1178,596.4"/>
	<path class="st1" d="M1169.5,589.2c1.7,0.9,3.4,1.7,5.1,2.6c1.2-1.4,1.8-3.1,1.8-5.1c0-0.6-0.8-1.2-2.3-2c-2.1-1-3.6-1.8-4.3-2.4
		c-1.1,4.1-1.6,5.8-1.6,5.3C1168.2,588.2,1168.6,588.7,1169.5,589.2"/>
	<path class="st1" d="M1163.3,626C1163.3,626,1163.3,626.1,1163.3,626C1163.4,626.1,1163.4,626,1163.3,626"/>
	<path class="st1" d="M1196.1,606c-0.5,1.7-0.8,2.8-0.8,3.3c0,0.1,0,0.2,0.1,0.3c1.1,0.3,2.2,1,3.4,1.9c1.1,0.8,1.7,1.2,1.8,1.2
		c0.1,0,0.2-0.1,0.3-0.2c1-3.3,1.5-5,1.5-5.2c0-0.3-0.1-0.4-0.2-0.5c-2.1-1.2-3.8-2.2-5.3-3C1196.9,603.6,1196.6,604.4,1196.1,606"
		/>
	<path class="st1" d="M1196.2,604c0.1,0,0.2,0,0.2-0.1c1-2.1,1.5-3.8,1.5-5.3c0-0.3,0-0.4-0.1-0.5c-0.7-0.3-1.7-1-3-2
		c-1.1-0.9-1.7-1.3-1.9-1.3c-0.1,0-0.1,0-0.1,0.1c-0.9,3.9-1.4,5.7-1.4,5.5c0,0.3,0.1,0.4,0.2,0.5C1194.4,603,1195.9,604,1196.2,604
		"/>
	<path class="st1" d="M1208.1,627.8c-0.3-0.6-0.6-1.1-0.7-1.5c0.2-0.7,0.3-1.2,0.3-1.6c0-1.1-0.7-0.8-2.2,1.1
		c-0.1,0.1-0.5,0.8-1.1,2c-0.5,1-1,1.6-1.3,1.9c-1.3,0.9-3.3,1.4-6,1.4c-1.1,0-2.3-0.3-3.4-1c-1-0.7-1.6-1.5-2-2.3
		c-0.3-0.8-0.6-1.5-0.7-1.9c0.3-0.9,0.4-1.4,0.2-1.7c-0.2-0.2-0.6-0.1-1.3,0.5c-1,1.9-1.6,3.1-1.8,3.7c-1.4,2.7-3.2,3.9-5.3,3.7
		c-1.3-0.1-2.7-1.2-4-3c0.6-2,1-3.1,1-3.1c0-0.2-0.1-0.3-0.3-0.3c-0.1,0-0.3,0-0.4,0.1c-1.3,1.3-2.2,2.5-2.9,3.5
		c-0.7,1.2-1.8,2.2-3.2,3.2c-1.6,1-3.1,1.5-4.6,1.5c-2.6,0-4.5-1.4-5.7-4.3c0.3-1,0.5-1.7,0.7-2.3c0.2-0.5,0.2-0.9,0.2-1.2
		c0-0.1-0.1-0.2-0.1-0.2c-0.1,0.1-0.5,0.3-1.1,0.5c-5.7,3-10,4.5-13.1,4.5h-7.4h-7.4v6.1h7.4h7.4c0.6,0,2.2-0.5,4.7-1.5
		c2.9-1.2,5.1-2.4,6.7-3.6c-0.2,2.6,0.4,4.7,1.7,6.2c1.2,1.4,2.7,2,4.7,2c2.4,0,4.7-1,6.9-3c1.4-1.6,2.4-2.8,2.9-3.7
		c0.6,1.8,1,2.8,1.1,3c0.7,1.1,2,1.7,3.8,1.7c2.8,0,5.4-2.5,7.6-7.6c0.1,1.5,0.5,2.6,1.1,3.6c1.2,1.8,3.5,2.7,6.9,2.8
		c2.2,0,4.1-0.8,5.7-2.3c0.8-0.8,1.8-2.4,3.1-5c-0.1,1.4,0.2,2.5,0.8,3.4c0.8,1.1,1.9,2.1,3.6,2.9c1.4,0.7,2.5,1,3.4,1v-6.1
		c-0.7,0-1.8-0.4-3.1-1.2C1209.3,629.1,1208.5,628.4,1208.1,627.8"/>
	<path class="st1" d="M1227.9,626C1227.9,626,1227.9,626.1,1227.9,626C1228,626.1,1228,626,1227.9,626"/>
	<path class="st1" d="M1285.4,620.6c-1-2.3-2.5-3.4-4.3-3.4c-2.3,0-4.5,1.9-6.4,5.6c-0.1-0.2-0.2-0.3-0.4-0.3
		c-0.3,0-1.2,1.1-2.8,3.3c-1.6,2.4-3,3.8-4.1,4.3c-1.8,0.7-3.6,1.1-5.6,1.1c-1.1,0-2.3-0.3-3.4-1c-1-0.7-1.6-1.5-2-2.3
		c-0.3-0.8-0.6-1.5-0.7-1.9c0.3-0.9,0.4-1.4,0.2-1.7c-0.2-0.2-0.6-0.1-1.3,0.5c-1,1.9-1.6,3.1-1.8,3.7c-1.4,2.7-3.2,3.9-5.3,3.7
		c-1.3-0.1-2.7-1.2-4-3c0.6-2,1-3.1,1-3.1c0-0.2-0.1-0.3-0.3-0.3c-0.1,0-0.3,0-0.4,0.1c-1.3,1.3-2.2,2.5-2.9,3.5
		c-0.7,1.2-1.8,2.2-3.2,3.2c-1.6,1-3.1,1.5-4.6,1.5c-2.6,0-4.5-1.4-5.7-4.3c0.3-1,0.5-1.7,0.7-2.3c0.2-0.5,0.2-0.9,0.2-1.2
		c0-0.1-0.1-0.2-0.1-0.2c-0.1,0.1-0.5,0.3-1.1,0.5c-5.7,3-10,4.5-13.1,4.5v6.1c0.6,0,2.2-0.5,4.7-1.5c2.9-1.2,5.1-2.4,6.7-3.6
		c-0.2,2.6,0.4,4.7,1.7,6.2c1.2,1.4,2.7,2,4.7,2c2.4,0,4.7-1,6.9-3c1.4-1.6,2.4-2.8,2.9-3.7c0.6,1.8,1,2.8,1.1,3
		c0.7,1.1,2,1.7,3.8,1.7c2.8,0,5.4-2.5,7.6-7.6c0.1,1.5,0.5,2.6,1.1,3.6c1.2,1.8,3.6,2.7,6.9,2.8c2.9,0,5.4-1.2,7.5-3.7
		c0.6-0.6,1.7-2.4,3.4-5.2c1.2,1.5,3,2.9,5.5,4.2c2.2,1.1,3.9,1.6,5,1.6c1,0,1.9-0.7,2.6-2.1c0.7-1.3,1-2.7,1-4.2
		C1286.7,624.9,1286.3,622.5,1285.4,620.6 M1278.9,626c-0.2-0.1-0.9-0.8-2.2-2c0.7-0.6,1.7-1,2.9-1c0.6,0,1.2,0.4,1.8,1.3
		c0.6,0.9,0.9,1.8,0.9,2.8C1281,627.1,1279.9,626.7,1278.9,626"/>
</g>
</svg>
